<svg xmlns="http://www.w3.org/2000/svg" xmlns:xlink="http://www.w3.org/1999/xlink" width="500" zoomAndPan="magnify" viewBox="0 0 375 374.999991" height="500" preserveAspectRatio="xMidYMid meet" version="1.0"><defs><g/><clipPath id="3ed194f52a"><path d="M 167 124 L 207 124 L 207 178 L 167 178 Z M 167 124 " clip-rule="nonzero"/></clipPath><clipPath id="aa552bcb4b"><path d="M 194.753906 124.605469 L 206.828125 131.890625 L 179.527344 177.128906 L 167.453125 169.839844 Z M 194.753906 124.605469 " clip-rule="nonzero"/></clipPath><clipPath id="ae7769e1af"><path d="M 194.753906 124.605469 L 206.828125 131.890625 L 179.539062 177.109375 L 167.464844 169.820312 Z M 194.753906 124.605469 " clip-rule="nonzero"/></clipPath><clipPath id="97b1eda18d"><path d="M 168 131 L 196 131 L 196 159 L 168 159 Z M 168 131 " clip-rule="nonzero"/></clipPath><clipPath id="29ea2e0854"><path d="M 178.839844 131.804688 L 195.296875 141.738281 L 185.171875 158.511719 L 168.714844 148.582031 Z M 178.839844 131.804688 " clip-rule="nonzero"/></clipPath><clipPath id="1c3ec28123"><path d="M 178.839844 131.804688 L 195.296875 141.738281 L 185.175781 158.5 L 168.722656 148.570312 Z M 178.839844 131.804688 " clip-rule="nonzero"/></clipPath><clipPath id="c60f3d38a9"><path d="M 187 133 L 214 133 L 214 159 L 187 159 Z M 187 133 " clip-rule="nonzero"/></clipPath><clipPath id="4716ba0c9c"><path d="M 197.007812 133.59375 L 213.503906 143.550781 L 204.464844 158.527344 L 187.96875 148.570312 Z M 197.007812 133.59375 " clip-rule="nonzero"/></clipPath><clipPath id="639094912d"><path d="M 197.007812 133.59375 L 213.460938 143.527344 L 204.421875 158.5 L 187.96875 148.570312 Z M 197.007812 133.59375 " clip-rule="nonzero"/></clipPath></defs><rect x="-37.5" width="450" fill="#ffffff" y="-37.499999" height="449.999989" fill-opacity="1"/><rect x="-37.5" width="450" fill="#ffffff" y="-37.499999" height="449.999989" fill-opacity="1"/><g fill="#3d3b3a" fill-opacity="1"><g transform="translate(81.929194, 238.401168)"><g><path d="M 1.546875 -11.734375 L 6.359375 -11.734375 C 8.109375 -11.734375 9.554688 -11.179688 10.703125 -10.078125 C 11.847656 -8.972656 12.421875 -7.566406 12.421875 -5.859375 C 12.421875 -4.160156 11.84375 -2.757812 10.6875 -1.65625 C 9.539062 -0.550781 8.078125 0 6.296875 0 L 1.546875 0 Z M 3.515625 -9.953125 L 3.515625 -1.78125 L 6.40625 -1.78125 C 7.550781 -1.78125 8.503906 -2.160156 9.265625 -2.921875 C 10.035156 -3.691406 10.421875 -4.664062 10.421875 -5.84375 C 10.421875 -7.03125 10.023438 -8.007812 9.234375 -8.78125 C 8.453125 -9.5625 7.484375 -9.953125 6.328125 -9.953125 Z M 3.515625 -9.953125 "/></g></g></g><g fill="#3d3b3a" fill-opacity="1"><g transform="translate(101.636493, 238.401168)"><g><path d="M 9.125 -2.65625 L 3.203125 -2.65625 L 2.078125 0 L 0.015625 0 L 5.203125 -11.734375 L 7.21875 -11.734375 L 12.359375 0 L 10.25 0 Z M 8.359375 -4.40625 L 6.15625 -9.625 L 3.9375 -4.40625 Z M 8.359375 -4.40625 "/></g></g></g><g fill="#3d3b3a" fill-opacity="1"><g transform="translate(120.723253, 238.401168)"><g><path d="M 11.71875 0 L 9.78125 0 L 3.515625 -8.421875 L 3.515625 0 L 1.546875 0 L 1.546875 -11.734375 L 3.484375 -11.734375 L 9.78125 -3.296875 L 9.78125 -11.734375 L 11.71875 -11.734375 Z M 11.71875 0 "/></g></g></g><g fill="#3d3b3a" fill-opacity="1"><g transform="translate(140.715664, 238.401168)"><g><path d="M 3.515625 0 L 1.546875 0 L 1.546875 -11.734375 L 3.515625 -11.734375 Z M 3.515625 0 "/></g></g></g><g fill="#3d3b3a" fill-opacity="1"><g transform="translate(152.490081, 238.401168)"><g><path d="M 9.921875 -9.953125 L 3.515625 -9.953125 L 3.515625 -6.796875 L 9.25 -6.796875 L 9.25 -5.015625 L 3.515625 -5.015625 L 3.515625 -1.78125 L 10.125 -1.78125 L 10.125 0 L 1.546875 0 L 1.546875 -11.734375 L 9.921875 -11.734375 Z M 9.921875 -9.953125 "/></g></g></g><g fill="#3d3b3a" fill-opacity="1"><g transform="translate(170.201583, 238.401168)"><g><path d="M 3.515625 -1.796875 L 8.59375 -1.796875 L 8.59375 0 L 1.546875 0 L 1.546875 -11.734375 L 3.515625 -11.734375 Z M 3.515625 -1.796875 "/></g></g></g><g fill="#3d3b3a" fill-opacity="1"><g transform="translate(185.86697, 238.401168)"><g/></g></g><g fill="#3d3b3a" fill-opacity="1"><g transform="translate(196.903446, 238.401168)"><g><path d="M 1.546875 -11.734375 L 6.21875 -11.734375 C 7.695312 -11.734375 8.835938 -11.382812 9.640625 -10.6875 C 10.453125 -9.988281 10.859375 -9.003906 10.859375 -7.734375 C 10.859375 -6.398438 10.453125 -5.363281 9.640625 -4.625 C 8.835938 -3.894531 7.695312 -3.53125 6.21875 -3.53125 L 3.515625 -3.53125 L 3.515625 0 L 1.546875 0 Z M 3.515625 -9.953125 L 3.515625 -5.3125 L 6.140625 -5.3125 C 8.023438 -5.3125 8.96875 -6.097656 8.96875 -7.671875 C 8.96875 -9.191406 8.023438 -9.953125 6.140625 -9.953125 Z M 3.515625 -9.953125 "/></g></g></g><g fill="#3d3b3a" fill-opacity="1"><g transform="translate(214.900056, 238.401168)"><g><path d="M 3.515625 0 L 1.546875 0 L 1.546875 -11.734375 L 3.515625 -11.734375 Z M 3.515625 0 "/></g></g></g><g fill="#3d3b3a" fill-opacity="1"><g transform="translate(226.674467, 238.401168)"><g><path d="M 9.921875 -9.953125 L 3.515625 -9.953125 L 3.515625 -6.796875 L 9.25 -6.796875 L 9.25 -5.015625 L 3.515625 -5.015625 L 3.515625 -1.78125 L 10.125 -1.78125 L 10.125 0 L 1.546875 0 L 1.546875 -11.734375 L 9.921875 -11.734375 Z M 9.921875 -9.953125 "/></g></g></g><g fill="#3d3b3a" fill-opacity="1"><g transform="translate(244.385963, 238.401168)"><g><path d="M 8.984375 0 L 6.84375 -3.546875 C 6.726562 -3.535156 6.546875 -3.53125 6.296875 -3.53125 L 3.515625 -3.53125 L 3.515625 0 L 1.546875 0 L 1.546875 -11.734375 L 6.296875 -11.734375 C 7.796875 -11.734375 8.957031 -11.382812 9.78125 -10.6875 C 10.613281 -9.988281 11.03125 -9.003906 11.03125 -7.734375 C 11.03125 -6.796875 10.820312 -6 10.40625 -5.34375 C 9.988281 -4.695312 9.382812 -4.222656 8.59375 -3.921875 L 11.234375 0 Z M 3.515625 -5.3125 L 6.296875 -5.3125 C 8.203125 -5.3125 9.15625 -6.097656 9.15625 -7.671875 C 9.15625 -9.191406 8.203125 -9.953125 6.296875 -9.953125 L 3.515625 -9.953125 Z M 3.515625 -5.3125 "/></g></g></g><g fill="#3d3b3a" fill-opacity="1"><g transform="translate(263.221153, 238.401168)"><g><path d="M 8.984375 0 L 6.84375 -3.546875 C 6.726562 -3.535156 6.546875 -3.53125 6.296875 -3.53125 L 3.515625 -3.53125 L 3.515625 0 L 1.546875 0 L 1.546875 -11.734375 L 6.296875 -11.734375 C 7.796875 -11.734375 8.957031 -11.382812 9.78125 -10.6875 C 10.613281 -9.988281 11.03125 -9.003906 11.03125 -7.734375 C 11.03125 -6.796875 10.820312 -6 10.40625 -5.34375 C 9.988281 -4.695312 9.382812 -4.222656 8.59375 -3.921875 L 11.234375 0 Z M 3.515625 -5.3125 L 6.296875 -5.3125 C 8.203125 -5.3125 9.15625 -6.097656 9.15625 -7.671875 C 9.15625 -9.191406 8.203125 -9.953125 6.296875 -9.953125 L 3.515625 -9.953125 Z M 3.515625 -5.3125 "/></g></g></g><g fill="#3d3b3a" fill-opacity="1"><g transform="translate(282.056343, 238.401168)"><g><path d="M 9.921875 -9.953125 L 3.515625 -9.953125 L 3.515625 -6.796875 L 9.25 -6.796875 L 9.25 -5.015625 L 3.515625 -5.015625 L 3.515625 -1.78125 L 10.125 -1.78125 L 10.125 0 L 1.546875 0 L 1.546875 -11.734375 L 9.921875 -11.734375 Z M 9.921875 -9.953125 "/></g></g></g><g fill="#3d3b3a" fill-opacity="1"><g transform="translate(149.114262, 149.928648)"><g><path d="M 23.859375 0.328125 C 22.304688 0.328125 20.566406 0.242188 18.640625 0.078125 C 17.890625 0.0234375 16.960938 -0.0234375 15.859375 -0.078125 C 14.765625 -0.128906 13.550781 -0.15625 12.21875 -0.15625 L 6.90625 -0.078125 C 5.945312 -0.0234375 4.609375 0 2.890625 0 C 2.785156 0 2.734375 -0.160156 2.734375 -0.484375 C 2.734375 -0.804688 2.785156 -0.96875 2.890625 -0.96875 C 4.984375 -0.96875 6.523438 -1.097656 7.515625 -1.359375 C 8.503906 -1.628906 9.1875 -2.148438 9.5625 -2.921875 C 9.9375 -3.703125 10.125 -4.898438 10.125 -6.515625 L 10.125 -43.71875 C 10.125 -45.320312 9.945312 -46.5 9.59375 -47.25 C 9.25 -48 8.582031 -48.519531 7.59375 -48.8125 C 6.601562 -49.113281 5.0625 -49.265625 2.96875 -49.265625 C 2.863281 -49.265625 2.8125 -49.421875 2.8125 -49.734375 C 2.8125 -50.054688 2.863281 -50.21875 2.96875 -50.21875 L 6.90625 -50.140625 C 9.15625 -50.035156 10.925781 -49.984375 12.21875 -49.984375 C 14.09375 -49.984375 15.992188 -50.0625 17.921875 -50.21875 C 20.273438 -50.332031 21.878906 -50.390625 22.734375 -50.390625 C 28.359375 -50.390625 33.34375 -49.316406 37.6875 -47.171875 C 42.03125 -45.023438 45.390625 -42.101562 47.765625 -38.40625 C 50.148438 -34.707031 51.34375 -30.554688 51.34375 -25.953125 C 51.34375 -20.753906 50.097656 -16.160156 47.609375 -12.171875 C 45.117188 -8.179688 41.785156 -5.097656 37.609375 -2.921875 C 33.429688 -0.753906 28.847656 0.328125 23.859375 0.328125 Z M 23.0625 -0.71875 C 27.5625 -0.71875 31.550781 -1.628906 35.03125 -3.453125 C 38.519531 -5.273438 41.238281 -7.953125 43.1875 -11.484375 C 45.144531 -15.023438 46.125 -19.257812 46.125 -24.1875 C 46.125 -28.90625 45.195312 -33.164062 43.34375 -36.96875 C 41.5 -40.769531 38.847656 -43.78125 35.390625 -46 C 31.941406 -48.226562 27.96875 -49.34375 23.46875 -49.34375 C 21.101562 -49.34375 19.289062 -49.207031 18.03125 -48.9375 C 16.78125 -48.664062 15.859375 -48.113281 15.265625 -47.28125 C 14.679688 -46.457031 14.390625 -45.21875 14.390625 -43.5625 L 14.390625 -7.390625 C 14.390625 -5.785156 14.628906 -4.5 15.109375 -3.53125 C 15.585938 -2.570312 16.441406 -1.863281 17.671875 -1.40625 C 18.910156 -0.945312 20.707031 -0.71875 23.0625 -0.71875 Z M 23.0625 -0.71875 "/></g></g></g><g fill="#3d3b3a" fill-opacity="1"><g transform="translate(184.92567, 189.169223)"><g><path d="M 14.953125 -6.828125 C 14.953125 -5.117188 15.191406 -3.875 15.671875 -3.09375 C 16.148438 -2.3125 17.070312 -1.757812 18.4375 -1.4375 C 19.800781 -1.125 21.984375 -0.96875 24.984375 -0.96875 C 25.148438 -0.96875 25.234375 -0.804688 25.234375 -0.484375 C 25.234375 -0.160156 25.148438 0 24.984375 0 C 22.796875 0 21.082031 -0.0234375 19.84375 -0.078125 L 12.859375 -0.15625 L 7.546875 -0.078125 C 6.585938 -0.0234375 5.25 0 3.53125 0 C 3.425781 0 3.375 -0.160156 3.375 -0.484375 C 3.375 -0.804688 3.425781 -0.96875 3.53125 -0.96875 C 5.625 -0.96875 7.164062 -1.097656 8.15625 -1.359375 C 9.144531 -1.628906 9.8125 -2.148438 10.15625 -2.921875 C 10.507812 -3.703125 10.6875 -4.898438 10.6875 -6.515625 L 10.6875 -43.71875 C 10.6875 -45.320312 10.507812 -46.5 10.15625 -47.25 C 9.8125 -48 9.144531 -48.519531 8.15625 -48.8125 C 7.164062 -49.113281 5.625 -49.265625 3.53125 -49.265625 C 3.425781 -49.265625 3.375 -49.421875 3.375 -49.734375 C 3.375 -50.054688 3.425781 -50.21875 3.53125 -50.21875 L 7.46875 -50.140625 C 9.71875 -50.035156 11.488281 -49.984375 12.78125 -49.984375 C 14.0625 -49.984375 15.535156 -50.0625 17.203125 -50.21875 C 21.378906 -50.382812 23.65625 -50.46875 24.03125 -50.46875 C 28.738281 -50.46875 32.566406 -49.378906 35.515625 -47.203125 C 38.460938 -45.035156 39.9375 -41.726562 39.9375 -37.28125 C 39.9375 -33.695312 39.050781 -30.6875 37.28125 -28.25 C 35.519531 -25.8125 33.285156 -24 30.578125 -22.8125 C 27.867188 -21.632812 25.066406 -21.046875 22.171875 -21.046875 C 20.566406 -21.046875 19.253906 -21.179688 18.234375 -21.453125 C 18.078125 -21.453125 18 -21.585938 18 -21.859375 C 18 -22.015625 18.035156 -22.171875 18.109375 -22.328125 C 18.191406 -22.492188 18.289062 -22.550781 18.40625 -22.5 C 19.257812 -22.28125 20.222656 -22.171875 21.296875 -22.171875 C 25.097656 -22.171875 28.320312 -23.320312 30.96875 -25.625 C 33.625 -27.9375 34.953125 -31.285156 34.953125 -35.671875 C 34.953125 -38.515625 34.390625 -40.96875 33.265625 -43.03125 C 32.140625 -45.09375 30.597656 -46.671875 28.640625 -47.765625 C 26.691406 -48.867188 24.535156 -49.421875 22.171875 -49.421875 C 19.984375 -49.421875 18.429688 -49.3125 17.515625 -49.09375 C 16.609375 -48.882812 15.953125 -48.390625 15.546875 -47.609375 C 15.148438 -46.835938 14.953125 -45.488281 14.953125 -43.5625 Z M 14.953125 -6.828125 "/></g></g></g><g clip-path="url(#3ed194f52a)"><g clip-path="url(#aa552bcb4b)"><g clip-path="url(#ae7769e1af)"><path fill="#ffffff" d="M 194.753906 124.605469 L 206.828125 131.890625 L 179.527344 177.128906 L 167.453125 169.839844 Z M 194.753906 124.605469 " fill-opacity="1" fill-rule="nonzero"/></g></g></g><g clip-path="url(#97b1eda18d)"><g clip-path="url(#29ea2e0854)"><g clip-path="url(#1c3ec28123)"><path fill="#ffffff" d="M 178.839844 131.804688 L 195.296875 141.738281 L 185.171875 158.511719 L 168.714844 148.582031 Z M 178.839844 131.804688 " fill-opacity="1" fill-rule="nonzero"/></g></g></g><g clip-path="url(#c60f3d38a9)"><g clip-path="url(#4716ba0c9c)"><g clip-path="url(#639094912d)"><path fill="#ffffff" d="M 197.007812 133.59375 L 213.445312 143.515625 L 204.40625 158.492188 L 187.96875 148.570312 Z M 197.007812 133.59375 " fill-opacity="1" fill-rule="nonzero"/></g></g></g><path stroke-linecap="butt" transform="matrix(0.431053, -0.613753, 0.613753, 0.431053, 162.46394, 183.096742)" fill="none" stroke-linejoin="miter" d="M 0.000822678 1.000125 L 116.884887 0.999427 " stroke="#3d3b3a" stroke-width="2" stroke-opacity="1" stroke-miterlimit="4"/><g fill="#3d3b3a" fill-opacity="1"><g transform="translate(151.122566, 262.353315)"><g><path d="M 4.5625 -1.125 C 4.539062 -1 4.53125 -0.894531 4.53125 -0.8125 C 4.53125 -0.625 4.59375 -0.53125 4.71875 -0.53125 C 4.800781 -0.53125 4.894531 -0.566406 5 -0.640625 C 5.101562 -0.710938 5.234375 -0.820312 5.390625 -0.96875 C 5.398438 -0.988281 5.414062 -1 5.4375 -1 C 5.457031 -1 5.472656 -0.984375 5.484375 -0.953125 C 5.503906 -0.921875 5.503906 -0.894531 5.484375 -0.875 C 5.203125 -0.53125 4.953125 -0.28125 4.734375 -0.125 C 4.515625 0.03125 4.285156 0.109375 4.046875 0.109375 C 3.648438 0.109375 3.453125 -0.128906 3.453125 -0.609375 C 3.453125 -0.773438 3.46875 -0.945312 3.5 -1.125 L 3.65625 -1.984375 C 3.3125 -1.304688 2.941406 -0.78125 2.546875 -0.40625 C 2.160156 -0.03125 1.765625 0.15625 1.359375 0.15625 C 1.035156 0.15625 0.765625 0.0546875 0.546875 -0.140625 C 0.335938 -0.347656 0.234375 -0.660156 0.234375 -1.078125 C 0.234375 -1.242188 0.253906 -1.410156 0.296875 -1.578125 C 0.398438 -2.171875 0.632812 -2.726562 1 -3.25 C 1.375 -3.78125 1.800781 -4.207031 2.28125 -4.53125 C 2.769531 -4.851562 3.242188 -5.015625 3.703125 -5.015625 C 3.890625 -5.015625 4.054688 -4.988281 4.203125 -4.9375 L 4.65625 -7.40625 C 4.675781 -7.570312 4.6875 -7.710938 4.6875 -7.828125 C 4.6875 -8.066406 4.609375 -8.1875 4.453125 -8.1875 C 4.347656 -8.1875 4.171875 -8.128906 3.921875 -8.015625 L 3.90625 -8.015625 C 3.863281 -8.015625 3.835938 -8.035156 3.828125 -8.078125 C 3.828125 -8.128906 3.84375 -8.15625 3.875 -8.15625 L 5.828125 -9.125 L 5.84375 -9.125 C 5.882812 -9.125 5.914062 -9.109375 5.9375 -9.078125 C 5.96875 -9.054688 5.976562 -9.035156 5.96875 -9.015625 Z M 1.984375 -0.71875 C 2.253906 -0.71875 2.515625 -0.84375 2.765625 -1.09375 C 3.023438 -1.34375 3.25 -1.648438 3.4375 -2.015625 C 3.625 -2.378906 3.757812 -2.726562 3.84375 -3.0625 L 3.90625 -3.390625 C 3.945312 -3.710938 3.875 -3.960938 3.6875 -4.140625 C 3.5 -4.316406 3.265625 -4.40625 2.984375 -4.40625 C 2.160156 -4.40625 1.628906 -3.691406 1.390625 -2.265625 C 1.359375 -2.066406 1.34375 -1.859375 1.34375 -1.640625 C 1.34375 -1.023438 1.554688 -0.71875 1.984375 -0.71875 Z M 1.984375 -0.71875 "/></g></g></g><g fill="#3d3b3a" fill-opacity="1"><g transform="translate(160.553179, 262.353315)"><g><path d="M 3.390625 -5.015625 C 3.710938 -5.015625 3.960938 -4.957031 4.140625 -4.84375 C 4.316406 -4.738281 4.40625 -4.59375 4.40625 -4.40625 C 4.40625 -4.03125 4.125 -3.675781 3.5625 -3.34375 C 3.007812 -3.007812 2.335938 -2.765625 1.546875 -2.609375 C 1.523438 -2.429688 1.515625 -2.253906 1.515625 -2.078125 C 1.515625 -1.578125 1.617188 -1.171875 1.828125 -0.859375 C 2.035156 -0.554688 2.34375 -0.40625 2.75 -0.40625 C 2.925781 -0.40625 3.117188 -0.4375 3.328125 -0.5 C 3.535156 -0.5625 3.722656 -0.660156 3.890625 -0.796875 L 3.90625 -0.796875 C 3.925781 -0.796875 3.945312 -0.78125 3.96875 -0.75 C 3.988281 -0.726562 3.988281 -0.707031 3.96875 -0.6875 C 3.664062 -0.394531 3.347656 -0.179688 3.015625 -0.046875 C 2.679688 0.0859375 2.347656 0.15625 2.015625 0.15625 C 1.429688 0.15625 0.992188 -0.0195312 0.703125 -0.375 C 0.421875 -0.726562 0.28125 -1.171875 0.28125 -1.703125 C 0.28125 -1.890625 0.300781 -2.097656 0.34375 -2.328125 C 0.425781 -2.773438 0.609375 -3.203125 0.890625 -3.609375 C 1.179688 -4.023438 1.546875 -4.363281 1.984375 -4.625 C 2.421875 -4.882812 2.890625 -5.015625 3.390625 -5.015625 Z M 3.125 -4.078125 C 3.132812 -4.109375 3.140625 -4.15625 3.140625 -4.21875 C 3.140625 -4.363281 3.101562 -4.472656 3.03125 -4.546875 C 2.96875 -4.628906 2.867188 -4.671875 2.734375 -4.671875 C 2.472656 -4.671875 2.238281 -4.5 2.03125 -4.15625 C 1.820312 -3.8125 1.671875 -3.363281 1.578125 -2.8125 C 2.535156 -3.0625 3.050781 -3.484375 3.125 -4.078125 Z M 3.125 -4.078125 "/></g></g></g><g fill="#3d3b3a" fill-opacity="1"><g transform="translate(168.814849, 262.353315)"><g><path d="M 2.375 0.15625 C 2.007812 0.15625 1.695312 0.0195312 1.4375 -0.25 C 1.1875 -0.53125 1.0625 -0.863281 1.0625 -1.25 C 1.0625 -1.476562 1.109375 -1.710938 1.203125 -1.953125 C 1.304688 -2.191406 1.457031 -2.5 1.65625 -2.875 C 1.832031 -3.21875 1.945312 -3.441406 2 -3.546875 C 2.0625 -3.679688 2.09375 -3.769531 2.09375 -3.8125 C 2.09375 -3.875 2.050781 -3.90625 1.96875 -3.90625 L 1.359375 -3.90625 C 1.066406 -3.90625 0.851562 -3.859375 0.71875 -3.765625 C 0.582031 -3.679688 0.484375 -3.546875 0.421875 -3.359375 C 0.398438 -3.328125 0.375 -3.3125 0.34375 -3.3125 C 0.3125 -3.3125 0.285156 -3.316406 0.265625 -3.328125 C 0.253906 -3.347656 0.253906 -3.367188 0.265625 -3.390625 C 0.398438 -3.785156 0.519531 -4.082031 0.625 -4.28125 C 0.726562 -4.488281 0.851562 -4.640625 1 -4.734375 C 1.144531 -4.828125 1.335938 -4.875 1.578125 -4.875 L 2.75 -4.875 C 2.84375 -4.875 2.890625 -4.851562 2.890625 -4.8125 C 2.890625 -4.789062 2.878906 -4.757812 2.859375 -4.71875 C 2.679688 -4.300781 2.519531 -3.878906 2.375 -3.453125 C 2.226562 -3.023438 2.132812 -2.664062 2.09375 -2.375 C 2.070312 -2.28125 2.0625 -2.15625 2.0625 -2 C 2.0625 -1.632812 2.144531 -1.34375 2.3125 -1.125 C 2.488281 -0.914062 2.71875 -0.8125 3 -0.8125 C 3.238281 -0.8125 3.46875 -0.878906 3.6875 -1.015625 C 3.914062 -1.160156 4.113281 -1.359375 4.28125 -1.609375 C 4.445312 -1.867188 4.550781 -2.164062 4.59375 -2.5 C 4.601562 -2.5625 4.609375 -2.644531 4.609375 -2.75 C 4.609375 -2.957031 4.570312 -3.128906 4.5 -3.265625 C 4.4375 -3.398438 4.328125 -3.550781 4.171875 -3.71875 C 4.066406 -3.84375 3.984375 -3.953125 3.921875 -4.046875 C 3.867188 -4.140625 3.84375 -4.242188 3.84375 -4.359375 C 3.84375 -4.566406 3.90625 -4.722656 4.03125 -4.828125 C 4.164062 -4.929688 4.335938 -4.984375 4.546875 -4.984375 C 4.765625 -4.984375 4.929688 -4.90625 5.046875 -4.75 C 5.160156 -4.601562 5.21875 -4.335938 5.21875 -3.953125 C 5.21875 -3.722656 5.207031 -3.535156 5.1875 -3.390625 C 5.132812 -2.773438 4.957031 -2.191406 4.65625 -1.640625 C 4.363281 -1.085938 4.007812 -0.648438 3.59375 -0.328125 C 3.1875 -0.00390625 2.78125 0.15625 2.375 0.15625 Z M 2.375 0.15625 "/></g></g></g><g fill="#3d3b3a" fill-opacity="1"><g transform="translate(178.220323, 262.353315)"><g><path d="M 3.390625 -5.015625 C 3.710938 -5.015625 3.960938 -4.957031 4.140625 -4.84375 C 4.316406 -4.738281 4.40625 -4.59375 4.40625 -4.40625 C 4.40625 -4.03125 4.125 -3.675781 3.5625 -3.34375 C 3.007812 -3.007812 2.335938 -2.765625 1.546875 -2.609375 C 1.523438 -2.429688 1.515625 -2.253906 1.515625 -2.078125 C 1.515625 -1.578125 1.617188 -1.171875 1.828125 -0.859375 C 2.035156 -0.554688 2.34375 -0.40625 2.75 -0.40625 C 2.925781 -0.40625 3.117188 -0.4375 3.328125 -0.5 C 3.535156 -0.5625 3.722656 -0.660156 3.890625 -0.796875 L 3.90625 -0.796875 C 3.925781 -0.796875 3.945312 -0.78125 3.96875 -0.75 C 3.988281 -0.726562 3.988281 -0.707031 3.96875 -0.6875 C 3.664062 -0.394531 3.347656 -0.179688 3.015625 -0.046875 C 2.679688 0.0859375 2.347656 0.15625 2.015625 0.15625 C 1.429688 0.15625 0.992188 -0.0195312 0.703125 -0.375 C 0.421875 -0.726562 0.28125 -1.171875 0.28125 -1.703125 C 0.28125 -1.890625 0.300781 -2.097656 0.34375 -2.328125 C 0.425781 -2.773438 0.609375 -3.203125 0.890625 -3.609375 C 1.179688 -4.023438 1.546875 -4.363281 1.984375 -4.625 C 2.421875 -4.882812 2.890625 -5.015625 3.390625 -5.015625 Z M 3.125 -4.078125 C 3.132812 -4.109375 3.140625 -4.15625 3.140625 -4.21875 C 3.140625 -4.363281 3.101562 -4.472656 3.03125 -4.546875 C 2.96875 -4.628906 2.867188 -4.671875 2.734375 -4.671875 C 2.472656 -4.671875 2.238281 -4.5 2.03125 -4.15625 C 1.820312 -3.8125 1.671875 -3.363281 1.578125 -2.8125 C 2.535156 -3.0625 3.050781 -3.484375 3.125 -4.078125 Z M 3.125 -4.078125 "/></g></g></g><g fill="#3d3b3a" fill-opacity="1"><g transform="translate(186.481995, 262.353315)"><g><path d="M 1.1875 0.109375 C 0.78125 0.109375 0.578125 -0.128906 0.578125 -0.609375 C 0.578125 -0.773438 0.59375 -0.945312 0.625 -1.125 L 1.78125 -7.40625 C 1.8125 -7.570312 1.828125 -7.710938 1.828125 -7.828125 C 1.828125 -8.066406 1.742188 -8.1875 1.578125 -8.1875 C 1.484375 -8.1875 1.3125 -8.128906 1.0625 -8.015625 L 1.046875 -8.015625 C 1.003906 -8.015625 0.976562 -8.035156 0.96875 -8.078125 C 0.957031 -8.128906 0.96875 -8.15625 1 -8.15625 L 2.953125 -9.125 L 2.984375 -9.125 C 3.015625 -9.125 3.046875 -9.109375 3.078125 -9.078125 C 3.109375 -9.054688 3.117188 -9.035156 3.109375 -9.015625 L 1.703125 -1.125 C 1.671875 -1 1.65625 -0.894531 1.65625 -0.8125 C 1.65625 -0.625 1.71875 -0.53125 1.84375 -0.53125 C 1.925781 -0.53125 2.019531 -0.566406 2.125 -0.640625 C 2.238281 -0.710938 2.367188 -0.820312 2.515625 -0.96875 C 2.535156 -0.988281 2.550781 -1 2.5625 -1 C 2.59375 -1 2.613281 -0.984375 2.625 -0.953125 C 2.644531 -0.921875 2.640625 -0.894531 2.609375 -0.875 C 2.328125 -0.53125 2.078125 -0.28125 1.859375 -0.125 C 1.640625 0.03125 1.414062 0.109375 1.1875 0.109375 Z M 1.1875 0.109375 "/></g></g></g><g fill="#3d3b3a" fill-opacity="1"><g transform="translate(193.361052, 262.353315)"><g><path d="M 1.984375 0.171875 C 1.429688 0.171875 1.007812 -0.00390625 0.71875 -0.359375 C 0.4375 -0.710938 0.296875 -1.175781 0.296875 -1.75 C 0.296875 -2 0.316406 -2.222656 0.359375 -2.421875 C 0.441406 -2.929688 0.617188 -3.378906 0.890625 -3.765625 C 1.171875 -4.160156 1.503906 -4.46875 1.890625 -4.6875 C 2.273438 -4.90625 2.6875 -5.015625 3.125 -5.015625 C 3.6875 -5.015625 4.117188 -4.84375 4.421875 -4.5 C 4.722656 -4.164062 4.875 -3.710938 4.875 -3.140625 C 4.875 -2.921875 4.847656 -2.679688 4.796875 -2.421875 C 4.679688 -1.867188 4.476562 -1.394531 4.1875 -1 C 3.90625 -0.613281 3.566406 -0.320312 3.171875 -0.125 C 2.785156 0.0703125 2.390625 0.171875 1.984375 0.171875 Z M 2.421875 -0.140625 C 2.679688 -0.140625 2.910156 -0.289062 3.109375 -0.59375 C 3.304688 -0.90625 3.453125 -1.332031 3.546875 -1.875 C 3.609375 -2.195312 3.640625 -2.53125 3.640625 -2.875 C 3.640625 -3.414062 3.554688 -3.859375 3.390625 -4.203125 C 3.222656 -4.546875 3 -4.71875 2.71875 -4.71875 C 2.46875 -4.71875 2.242188 -4.570312 2.046875 -4.28125 C 1.847656 -3.988281 1.695312 -3.550781 1.59375 -2.96875 C 1.539062 -2.644531 1.515625 -2.3125 1.515625 -1.96875 C 1.515625 -1.425781 1.59375 -0.984375 1.75 -0.640625 C 1.90625 -0.304688 2.128906 -0.140625 2.421875 -0.140625 Z M 2.421875 -0.140625 "/></g></g></g><g fill="#3d3b3a" fill-opacity="1"><g transform="translate(202.263757, 262.353315)"><g><path d="M 3.578125 -4.9375 C 4.015625 -4.9375 4.34375 -4.820312 4.5625 -4.59375 C 4.789062 -4.375 4.90625 -4.050781 4.90625 -3.625 C 4.90625 -3.476562 4.894531 -3.332031 4.875 -3.1875 C 4.78125 -2.625 4.582031 -2.097656 4.28125 -1.609375 C 3.976562 -1.117188 3.601562 -0.722656 3.15625 -0.421875 C 2.71875 -0.128906 2.273438 0.015625 1.828125 0.015625 C 1.691406 0.015625 1.523438 0.00390625 1.328125 -0.015625 L 0.921875 2.234375 C 0.890625 2.441406 0.875 2.566406 0.875 2.609375 C 0.875 2.734375 0.898438 2.820312 0.953125 2.875 C 1.015625 2.925781 1.113281 2.953125 1.25 2.953125 C 1.289062 2.953125 1.378906 2.945312 1.515625 2.9375 C 1.546875 2.9375 1.566406 2.957031 1.578125 3 C 1.585938 3.039062 1.578125 3.0625 1.546875 3.0625 L -0.84375 3.453125 C -0.863281 3.460938 -0.878906 3.441406 -0.890625 3.390625 C -0.910156 3.347656 -0.90625 3.320312 -0.875 3.3125 C -0.695312 3.269531 -0.570312 3.21875 -0.5 3.15625 C -0.425781 3.101562 -0.367188 3.019531 -0.328125 2.90625 C -0.285156 2.789062 -0.238281 2.597656 -0.1875 2.328125 L 0.890625 -3.703125 C 0.710938 -3.597656 0.5 -3.453125 0.25 -3.265625 C 0.238281 -3.253906 0.226562 -3.25 0.21875 -3.25 C 0.175781 -3.25 0.144531 -3.265625 0.125 -3.296875 C 0.113281 -3.335938 0.125 -3.367188 0.15625 -3.390625 C 0.5 -3.660156 0.757812 -3.851562 0.9375 -3.96875 L 1.09375 -4.859375 C 1.09375 -4.867188 1.164062 -4.914062 1.3125 -5 C 1.539062 -5.144531 1.734375 -5.28125 1.890625 -5.40625 C 2.054688 -5.53125 2.160156 -5.675781 2.203125 -5.84375 C 2.210938 -5.875 2.238281 -5.882812 2.28125 -5.875 C 2.332031 -5.863281 2.351562 -5.84375 2.34375 -5.8125 L 2.125 -4.609375 C 2.625 -4.828125 3.109375 -4.9375 3.578125 -4.9375 Z M 3.734375 -2.765625 C 3.753906 -2.921875 3.765625 -3.035156 3.765625 -3.109375 C 3.765625 -3.460938 3.679688 -3.753906 3.515625 -3.984375 C 3.347656 -4.210938 3.082031 -4.328125 2.71875 -4.328125 C 2.488281 -4.328125 2.269531 -4.296875 2.0625 -4.234375 L 1.40625 -0.546875 C 1.6875 -0.421875 1.984375 -0.359375 2.296875 -0.359375 C 2.691406 -0.359375 3.003906 -0.570312 3.234375 -1 C 3.472656 -1.4375 3.640625 -2.023438 3.734375 -2.765625 Z M 3.734375 -2.765625 "/></g></g></g><g fill="#3d3b3a" fill-opacity="1"><g transform="translate(211.12875, 262.353315)"><g><path d="M 3.390625 -5.015625 C 3.710938 -5.015625 3.960938 -4.957031 4.140625 -4.84375 C 4.316406 -4.738281 4.40625 -4.59375 4.40625 -4.40625 C 4.40625 -4.03125 4.125 -3.675781 3.5625 -3.34375 C 3.007812 -3.007812 2.335938 -2.765625 1.546875 -2.609375 C 1.523438 -2.429688 1.515625 -2.253906 1.515625 -2.078125 C 1.515625 -1.578125 1.617188 -1.171875 1.828125 -0.859375 C 2.035156 -0.554688 2.34375 -0.40625 2.75 -0.40625 C 2.925781 -0.40625 3.117188 -0.4375 3.328125 -0.5 C 3.535156 -0.5625 3.722656 -0.660156 3.890625 -0.796875 L 3.90625 -0.796875 C 3.925781 -0.796875 3.945312 -0.78125 3.96875 -0.75 C 3.988281 -0.726562 3.988281 -0.707031 3.96875 -0.6875 C 3.664062 -0.394531 3.347656 -0.179688 3.015625 -0.046875 C 2.679688 0.0859375 2.347656 0.15625 2.015625 0.15625 C 1.429688 0.15625 0.992188 -0.0195312 0.703125 -0.375 C 0.421875 -0.726562 0.28125 -1.171875 0.28125 -1.703125 C 0.28125 -1.890625 0.300781 -2.097656 0.34375 -2.328125 C 0.425781 -2.773438 0.609375 -3.203125 0.890625 -3.609375 C 1.179688 -4.023438 1.546875 -4.363281 1.984375 -4.625 C 2.421875 -4.882812 2.890625 -5.015625 3.390625 -5.015625 Z M 3.125 -4.078125 C 3.132812 -4.109375 3.140625 -4.15625 3.140625 -4.21875 C 3.140625 -4.363281 3.101562 -4.472656 3.03125 -4.546875 C 2.96875 -4.628906 2.867188 -4.671875 2.734375 -4.671875 C 2.472656 -4.671875 2.238281 -4.5 2.03125 -4.15625 C 1.820312 -3.8125 1.671875 -3.363281 1.578125 -2.8125 C 2.535156 -3.0625 3.050781 -3.484375 3.125 -4.078125 Z M 3.125 -4.078125 "/></g></g></g><g fill="#3d3b3a" fill-opacity="1"><g transform="translate(219.390423, 262.353315)"><g><path d="M 3.734375 -4.96875 C 3.953125 -4.96875 4.160156 -4.882812 4.359375 -4.71875 C 4.554688 -4.5625 4.640625 -4.382812 4.609375 -4.1875 C 4.585938 -4.0625 4.523438 -3.941406 4.421875 -3.828125 C 4.328125 -3.722656 4.203125 -3.671875 4.046875 -3.671875 C 3.898438 -3.671875 3.738281 -3.742188 3.5625 -3.890625 C 3.5 -3.929688 3.4375 -3.96875 3.375 -4 C 3.320312 -4.03125 3.265625 -4.046875 3.203125 -4.046875 C 3.066406 -4.046875 2.890625 -3.820312 2.671875 -3.375 C 2.460938 -2.9375 2.265625 -2.410156 2.078125 -1.796875 C 1.890625 -1.179688 1.753906 -0.632812 1.671875 -0.15625 C 1.648438 -0.0703125 1.582031 -0.0078125 1.46875 0.03125 C 1.351562 0.0703125 1.1875 0.09375 0.96875 0.09375 C 0.6875 0.09375 0.546875 0.0625 0.546875 0 C 0.554688 -0.0625 0.582031 -0.1875 0.625 -0.375 C 0.675781 -0.570312 0.71875 -0.757812 0.75 -0.9375 L 1.265625 -3.734375 C 1.285156 -3.867188 1.296875 -3.957031 1.296875 -4 C 1.296875 -4.238281 1.21875 -4.359375 1.0625 -4.359375 C 0.894531 -4.359375 0.660156 -4.1875 0.359375 -3.84375 C 0.347656 -3.84375 0.332031 -3.84375 0.3125 -3.84375 C 0.28125 -3.84375 0.253906 -3.851562 0.234375 -3.875 C 0.222656 -3.90625 0.226562 -3.9375 0.25 -3.96875 C 0.550781 -4.3125 0.820312 -4.5625 1.0625 -4.71875 C 1.300781 -4.882812 1.539062 -4.96875 1.78125 -4.96875 C 1.988281 -4.96875 2.140625 -4.910156 2.234375 -4.796875 C 2.328125 -4.679688 2.375 -4.515625 2.375 -4.296875 C 2.375 -4.171875 2.363281 -4.035156 2.34375 -3.890625 L 2.09375 -2.5 C 2.582031 -4.144531 3.128906 -4.96875 3.734375 -4.96875 Z M 3.734375 -4.96875 "/></g></g></g></svg>