<svg xmlns="http://www.w3.org/2000/svg" xmlns:xlink="http://www.w3.org/1999/xlink" width="500" zoomAndPan="magnify" viewBox="0 0 375 374.999991" height="500" preserveAspectRatio="xMidYMid meet" version="1.0"><defs><g/><clipPath id="3c67c76f22"><path d="M 40.246094 122.90625 L 96.496094 122.90625 L 96.496094 244.597656 L 40.246094 244.597656 Z M 40.246094 122.90625 " clip-rule="nonzero"/></clipPath></defs><g fill="#2b2b2b" fill-opacity="1"><g transform="translate(101.520824, 242.445482)"><g><path d="M 5.15625 -116.609375 L 37.328125 -116.609375 C 45.648438 -116.609375 51.894531 -114.300781 56.0625 -109.6875 C 60.226562 -105.070312 62.351562 -98.238281 62.4375 -89.1875 L 62.71875 -34.609375 C 62.8125 -23.117188 60.820312 -14.476562 56.75 -8.6875 C 52.675781 -2.894531 45.929688 0 36.515625 0 L 5.15625 0 Z M 32.71875 -20.640625 C 36.96875 -20.640625 39.09375 -22.71875 39.09375 -26.875 L 39.09375 -87.015625 C 39.09375 -89.640625 38.890625 -91.609375 38.484375 -92.921875 C 38.078125 -94.234375 37.328125 -95.113281 36.234375 -95.5625 C 35.148438 -96.019531 33.476562 -96.25 31.21875 -96.25 L 28.640625 -96.25 L 28.640625 -20.640625 Z M 32.71875 -20.640625 "/></g></g></g><g fill="#2b2b2b" fill-opacity="1"><g transform="translate(168.444483, 242.445482)"><g><path d="M 2.03125 0 L 13.296875 -116.609375 L 52.8125 -116.609375 L 63.9375 0 L 41.8125 0 L 40.1875 -18.875 L 26.0625 -18.875 L 24.703125 0 Z M 27.828125 -37.46875 L 38.421875 -37.46875 L 33.265625 -96.796875 L 32.171875 -96.796875 Z M 27.828125 -37.46875 "/></g></g></g><g fill="#2b2b2b" fill-opacity="1"><g transform="translate(234.282168, 242.445482)"><g><path d="M 5.15625 0 L 5.15625 -116.609375 L 29.1875 -116.609375 L 39.90625 -60.8125 L 39.90625 -116.609375 L 62.4375 -116.609375 L 62.4375 0 L 39.640625 0 L 27.96875 -58.375 L 27.96875 0 Z M 5.15625 0 "/></g></g></g><g fill="#2b2b2b" fill-opacity="1"><g transform="translate(301.884588, 242.445482)"><g><path d="M 4.078125 0 L 4.078125 -116.609375 L 26.609375 -116.609375 L 26.609375 0 Z M 4.078125 0 "/></g></g></g><g clip-path="url(#3c67c76f22)"><path fill="#2b2b2b" d="M 40.246094 122.90625 L 96.496094 122.90625 L 96.496094 244.636719 L 40.246094 244.636719 Z M 40.246094 122.90625 " fill-opacity="1" fill-rule="nonzero"/></g><g fill="#e6e6dd" fill-opacity="1"><g transform="translate(85.997767, 238.262798)"><g><path d="M -37.71875 -1.671875 L -37.71875 -11.640625 C -37.71875 -14.648438 -36.742188 -16.796875 -34.796875 -18.078125 C -32.847656 -19.367188 -30 -20.015625 -26.25 -20.015625 C -22.507812 -20.015625 -19.6875 -19.441406 -17.78125 -18.296875 C -15.875 -17.160156 -14.921875 -15.113281 -14.921875 -12.15625 L -14.921875 -9.09375 L 0 -9.09375 L 0 -1.671875 Z M -21.734375 -9.53125 C -21.734375 -10.4375 -21.898438 -11.097656 -22.234375 -11.515625 C -22.578125 -11.941406 -23.0625 -12.222656 -23.6875 -12.359375 C -24.3125 -12.492188 -25.210938 -12.5625 -26.390625 -12.5625 C -27.972656 -12.5625 -29.113281 -12.382812 -29.8125 -12.03125 C -30.507812 -11.675781 -30.859375 -10.972656 -30.859375 -9.921875 L -30.859375 -9.09375 L -21.734375 -9.09375 Z M -21.734375 -9.53125 "/></g></g></g><g fill="#e6e6dd" fill-opacity="1"><g transform="translate(85.997767, 217.542722)"><g><path d="M 0 -1.3125 L -37.71875 -1.3125 L -37.71875 -8.609375 L 0 -8.609375 Z M 0 -1.3125 "/></g></g></g><g fill="#e6e6dd" fill-opacity="1"><g transform="translate(85.997767, 207.577768)"><g><path d="M 0 -1.671875 L -37.71875 -1.671875 L -37.71875 -16.765625 L -30.421875 -16.765625 L -30.421875 -9.359375 L -23.09375 -9.359375 L -23.09375 -16.46875 L -15.984375 -16.46875 L -15.984375 -9.359375 L -7.328125 -9.359375 L -7.328125 -17.25 L 0 -17.25 Z M 0 -1.671875 "/></g></g></g><g fill="#e6e6dd" fill-opacity="1"><g transform="translate(85.997767, 189.491607)"><g><path d="M -37.71875 -1.671875 L -37.71875 -13.265625 C -37.71875 -15.109375 -37.300781 -16.535156 -36.46875 -17.546875 C -35.632812 -18.554688 -34.460938 -19.234375 -32.953125 -19.578125 C -31.441406 -19.929688 -29.515625 -20.109375 -27.171875 -20.109375 C -25.035156 -20.109375 -23.367188 -19.828125 -22.171875 -19.265625 C -20.972656 -18.710938 -20.140625 -17.75 -19.671875 -16.375 C -19.429688 -17.519531 -18.859375 -18.347656 -17.953125 -18.859375 C -17.046875 -19.367188 -15.816406 -19.625 -14.265625 -19.625 L 0 -19.53125 L 0 -12.15625 L -14.75 -12.15625 C -15.800781 -12.15625 -16.472656 -11.953125 -16.765625 -11.546875 C -17.066406 -11.140625 -17.21875 -10.394531 -17.21875 -9.3125 L 0 -9.3125 L 0 -1.671875 Z M -23.75 -11.15625 C -23.75 -12.207031 -24.890625 -12.734375 -27.171875 -12.734375 C -28.171875 -12.734375 -28.914062 -12.6875 -29.40625 -12.59375 C -29.90625 -12.507812 -30.25 -12.347656 -30.4375 -12.109375 C -30.632812 -11.878906 -30.734375 -11.546875 -30.734375 -11.109375 L -30.734375 -9.359375 L -23.75 -9.359375 Z M -23.75 -11.15625 "/></g></g></g><g fill="#e6e6dd" fill-opacity="1"><g transform="translate(85.997767, 168.552045)"><g><path d="M -37.71875 -1.671875 L -37.71875 -13.265625 C -37.71875 -15.109375 -37.300781 -16.535156 -36.46875 -17.546875 C -35.632812 -18.554688 -34.460938 -19.234375 -32.953125 -19.578125 C -31.441406 -19.929688 -29.515625 -20.109375 -27.171875 -20.109375 C -25.035156 -20.109375 -23.367188 -19.828125 -22.171875 -19.265625 C -20.972656 -18.710938 -20.140625 -17.75 -19.671875 -16.375 C -19.429688 -17.519531 -18.859375 -18.347656 -17.953125 -18.859375 C -17.046875 -19.367188 -15.816406 -19.625 -14.265625 -19.625 L 0 -19.53125 L 0 -12.15625 L -14.75 -12.15625 C -15.800781 -12.15625 -16.472656 -11.953125 -16.765625 -11.546875 C -17.066406 -11.140625 -17.21875 -10.394531 -17.21875 -9.3125 L 0 -9.3125 L 0 -1.671875 Z M -23.75 -11.15625 C -23.75 -12.207031 -24.890625 -12.734375 -27.171875 -12.734375 C -28.171875 -12.734375 -28.914062 -12.6875 -29.40625 -12.59375 C -29.90625 -12.507812 -30.25 -12.347656 -30.4375 -12.109375 C -30.632812 -11.878906 -30.734375 -11.546875 -30.734375 -11.109375 L -30.734375 -9.359375 L -23.75 -9.359375 Z M -23.75 -11.15625 "/></g></g></g><g fill="#e6e6dd" fill-opacity="1"><g transform="translate(85.997767, 147.612483)"><g><path d="M 0 -1.671875 L -37.71875 -1.671875 L -37.71875 -16.765625 L -30.421875 -16.765625 L -30.421875 -9.359375 L -23.09375 -9.359375 L -23.09375 -16.46875 L -15.984375 -16.46875 L -15.984375 -9.359375 L -7.328125 -9.359375 L -7.328125 -17.25 L 0 -17.25 Z M 0 -1.671875 "/></g></g></g></svg>