<svg xmlns="http://www.w3.org/2000/svg" xmlns:xlink="http://www.w3.org/1999/xlink" width="500" zoomAndPan="magnify" viewBox="0 0 375 374.999991" height="500" preserveAspectRatio="xMidYMid meet" version="1.0"><defs><g/><clipPath id="dfdaaa7abf"><path d="M 56.488281 151.464844 L 318.167969 151.464844 L 318.167969 223.464844 L 56.488281 223.464844 Z M 56.488281 151.464844 " clip-rule="nonzero"/></clipPath><clipPath id="3f66458a45"><path d="M 63.558594 158.238281 L 187.332031 158.238281 L 187.332031 216.761719 L 63.558594 216.761719 Z M 63.558594 158.238281 " clip-rule="nonzero"/></clipPath></defs><g clip-path="url(#dfdaaa7abf)"><path stroke-linecap="butt" transform="matrix(0.75, 0, 0, 0.75, 56.489269, 151.465435)" fill="none" stroke-linejoin="miter" d="M -0.00131672 -0.000788138 L 348.904956 -0.000788138 L 348.904956 96.092968 L -0.00131672 96.092968 Z M -0.00131672 -0.000788138 " stroke="#000000" stroke-width="6" stroke-opacity="1" stroke-miterlimit="4"/></g><g clip-path="url(#3f66458a45)"><path fill="#000000" d="M 63.558594 158.238281 L 187.238281 158.238281 L 187.238281 216.761719 L 63.558594 216.761719 Z M 63.558594 158.238281 " fill-opacity="1" fill-rule="nonzero"/></g><g fill="#ffffff" fill-opacity="1"><g transform="translate(68.598947, 196.61823)"><g><path d="M 2.859375 0 L 9.671875 0 C 15.703125 0 19.75 -4.015625 19.75 -9.828125 C 19.75 -15.640625 15.703125 -19.671875 9.671875 -19.671875 L 2.859375 -19.671875 Z M 5.34375 -2.359375 L 5.34375 -17.3125 L 9.546875 -17.3125 C 14.125 -17.3125 17.21875 -14.296875 17.21875 -9.828125 C 17.21875 -5.359375 14.15625 -2.359375 9.671875 -2.359375 Z M 5.34375 -2.359375 "/></g></g></g><g fill="#ffffff" fill-opacity="1"><g transform="translate(92.101167, 196.61823)"><g><path d="M 0.484375 0 L 3.125 0 L 4.921875 -4.46875 L 14.5 -4.46875 L 16.34375 0 L 18.96875 0 L 10.875 -19.671875 L 8.5625 -19.671875 Z M 5.875 -6.765625 L 9.71875 -16.203125 L 13.5625 -6.765625 Z M 5.875 -6.765625 "/></g></g></g><g fill="#ffffff" fill-opacity="1"><g transform="translate(113.665994, 196.61823)"><g><path d="M 2.859375 0 L 5.3125 0 L 5.3125 -15.390625 L 16.1875 0 L 18.484375 0 L 18.484375 -19.671875 L 16.0625 -19.671875 L 16.0625 -4.265625 L 5.203125 -19.671875 L 2.859375 -19.671875 Z M 2.859375 0 "/></g></g></g><g fill="#ffffff" fill-opacity="1"><g transform="translate(137.140131, 196.61823)"><g><path d="M 2.859375 0 L 5.34375 0 L 5.34375 -19.671875 L 2.859375 -19.671875 Z M 2.859375 0 "/></g></g></g><g fill="#ffffff" fill-opacity="1"><g transform="translate(147.473728, 196.61823)"><g><path d="M 2.859375 0 L 15.109375 0 L 15.109375 -2.296875 L 5.34375 -2.296875 L 5.34375 -8.875 L 14.109375 -8.875 L 14.109375 -11.15625 L 5.34375 -11.15625 L 5.34375 -17.359375 L 14.8125 -17.359375 L 14.8125 -19.671875 L 2.859375 -19.671875 Z M 2.859375 0 "/></g></g></g><g fill="#ffffff" fill-opacity="1"><g transform="translate(166.539606, 196.61823)"><g><path d="M 2.859375 0 L 14.890625 0 L 14.890625 -2.359375 L 5.34375 -2.359375 L 5.34375 -19.671875 L 2.859375 -19.671875 Z M 2.859375 0 "/></g></g></g><g fill="#000000" fill-opacity="1"><g transform="translate(201.052872, 196.769484)"><g><path d="M 2.078125 0 L 7.75 0 L 7.75 -4.859375 L 10.359375 -4.859375 C 15.375 -4.859375 18.546875 -7.75 18.546875 -12.28125 C 18.546875 -16.796875 15.375 -19.671875 10.359375 -19.671875 L 2.078125 -19.671875 Z M 7.703125 -9.609375 L 7.703125 -14.890625 L 9.828125 -14.890625 C 11.71875 -14.890625 12.8125 -13.875 12.8125 -12.25 C 12.8125 -10.59375 11.71875 -9.609375 9.828125 -9.609375 Z M 7.703125 -9.609375 "/></g></g></g><g fill="#000000" fill-opacity="1"><g transform="translate(220.234938, 196.769484)"><g><path d="M 2.078125 0 L 7.75 0 L 7.75 -19.671875 L 2.078125 -19.671875 Z M 2.078125 0 "/></g></g></g><g fill="#000000" fill-opacity="1"><g transform="translate(230.064698, 196.769484)"><g><path d="M 2.078125 0 L 15.875 0 L 15.875 -4.640625 L 7.703125 -4.640625 L 7.703125 -7.671875 L 14.8125 -7.671875 L 14.8125 -12.21875 L 7.703125 -12.21875 L 7.703125 -15.09375 L 15.5625 -15.09375 L 15.5625 -19.671875 L 2.078125 -19.671875 Z M 2.078125 0 "/></g></g></g><g fill="#000000" fill-opacity="1"><g transform="translate(247.196552, 196.769484)"><g><path d="M 2.078125 0 L 7.75 0 L 7.75 -5.59375 L 9.890625 -5.59375 L 12.703125 0 L 19.125 0 L 15.5 -6.625 C 17.59375 -7.78125 18.765625 -9.859375 18.765625 -12.609375 C 18.765625 -16.96875 15.8125 -19.671875 11.046875 -19.671875 L 2.078125 -19.671875 Z M 7.640625 -10.109375 L 7.640625 -15.03125 L 10.28125 -15.03125 C 12.078125 -15.03125 13.0625 -14.15625 13.0625 -12.59375 C 13.0625 -11.015625 12.078125 -10.109375 10.28125 -10.109375 Z M 7.640625 -10.109375 "/></g></g></g><g fill="#000000" fill-opacity="1"><g transform="translate(267.417764, 196.769484)"><g><path d="M 2.078125 0 L 7.75 0 L 7.75 -5.59375 L 9.890625 -5.59375 L 12.703125 0 L 19.125 0 L 15.5 -6.625 C 17.59375 -7.78125 18.765625 -9.859375 18.765625 -12.609375 C 18.765625 -16.96875 15.8125 -19.671875 11.046875 -19.671875 L 2.078125 -19.671875 Z M 7.640625 -10.109375 L 7.640625 -15.03125 L 10.28125 -15.03125 C 12.078125 -15.03125 13.0625 -14.15625 13.0625 -12.59375 C 13.0625 -11.015625 12.078125 -10.109375 10.28125 -10.109375 Z M 7.640625 -10.109375 "/></g></g></g><g fill="#000000" fill-opacity="1"><g transform="translate(287.638975, 196.769484)"><g><path d="M 2.078125 0 L 15.875 0 L 15.875 -4.640625 L 7.703125 -4.640625 L 7.703125 -7.671875 L 14.8125 -7.671875 L 14.8125 -12.21875 L 7.703125 -12.21875 L 7.703125 -15.09375 L 15.5625 -15.09375 L 15.5625 -19.671875 L 2.078125 -19.671875 Z M 2.078125 0 "/></g></g></g></svg>